<?xml version="1.0" encoding="utf-8"?>
<!-- Generator: Adobe Illustrator 24.0.2, SVG Export Plug-In . SVG Version: 6.00 Build 0)  -->
<svg version="1.1" id="Capa_1" xmlns="http://www.w3.org/2000/svg" xmlns:xlink="http://www.w3.org/1999/xlink" x="0px" y="0px"
	 viewBox="0 0 512 512" style="enable-background:new 0 0 512 512;" xml:space="preserve">
<style type="text/css">
	.st0{fill:#FFFFFF;}
</style>
<g id="XMLID_75_">
	<g id="XMLID_758_">
		<path id="XMLID_769_" class="st0" d="M431,41.9c1,0,2-0.1,2.9-0.4l71-21.9c5.3-1.6,8.2-7.2,6.6-12.5c-1.6-5.3-7.2-8.2-12.5-6.6
			l-71,21.9c-5.3,1.6-8.2,7.2-6.6,12.5C422.8,39.1,426.7,41.9,431,41.9z"/>
		<path id="XMLID_804_" class="st0" d="M504.9,142.3l-80-24.6c-5.3-1.6-10.9,1.3-12.5,6.6c-1.6,5.3,1.3,10.9,6.6,12.5l80,24.6
			c1,0.3,2,0.4,2.9,0.4c4.3,0,8.2-2.8,9.6-7.1C513.2,149.5,510.2,143.9,504.9,142.3z"/>
		<path id="XMLID_805_" class="st0" d="M425.3,90H502c5.5,0,10-4.5,10-10s-4.5-10-10-10h-76.7c-5.5,0-10,4.5-10,10
			S419.7,90,425.3,90z"/>
		<path id="XMLID_808_" class="st0" d="M361.1,171.1H301c0.2-2.9-0.3-5.9-1.4-8.8c-2.8-7.1-4.2-14.6-4.2-22.4v-24.4h30.2
			c4.4,0,8.5-1.5,11.8-4l23.2,7.1c1,0.3,2,0.4,2.9,0.4c4.3,0,8.2-2.8,9.6-7.1c1.6-5.3-1.3-10.9-6.6-12.5L345,93.1V68.8l33.6-10.3
			c5.3-1.6,8.2-7.2,6.6-12.5c-1.6-5.3-7.2-8.2-12.5-6.6l-35,10.8c-3.3-2.7-7.6-4.3-12.2-4.3h-64.3c-5.5,0-10,4.5-10,10s4.5,10,10,10
			h20v29.9h-14.3c-2.4,0-4.8,0.9-6.6,2.5L238.7,117h-25.6c-6.7-17.1-25.1-26.4-43-21.3l-2.9,0.8c-6.6,1.9-13.1,4.1-19.4,6.5
			c5.6-13.2,15.7-24.1,28.9-30.8c4.9-2.5,6.9-8.5,4.4-13.4c-2.5-4.9-8.5-6.9-13.4-4.4c-23.4,11.8-39.5,33.8-43.6,59.4
			c-30.3,15.9-57,38.4-77.6,65.9H10c-5.5,0-10,4.5-10,10s4.5,10,10,10h41.4c3.2,0,6.3-1.6,8.1-4.2c27.5-38.5,67.7-66.8,113.1-79.8
			l2.9-0.8c8.2-2.3,16.6,2.2,19.2,10.2c2.2,6.8-0.5,14.2-6.5,18l-46.1,29.5c-3.7,2.4-5.4,7-4.2,11.2c1.2,4.3,5.2,7.2,9.6,7.2h23.9
			c-13.4,41.2-20.2,84-20.2,127.7v26.1c-35-3-67.6-18.1-92.7-43.2c-1.9-1.9-4.4-2.9-7.1-2.9H10c-5.5,0-10,4.5-10,10s4.5,10,10,10
			h37.6c28.4,27.1,64.8,43.3,103.8,46.2v94.4c0,29.1,23.7,52.7,52.7,52.7h18.7h14.8h54.6c29.1,0,52.7-23.7,52.7-52.7V357.4
			c6.6-5.8,10.8-14.4,10.8-23.8c0-8.4-3.3-16.1-8.7-21.8c5.4-5.7,8.7-13.4,8.7-21.8c0-8.4-3.3-16.1-8.7-21.8
			c5.4-5.7,8.7-13.4,8.7-21.8c0-4.2-0.8-8.1-2.3-11.8h7.6c17.5,0,31.8-14.3,31.8-31.8S378.7,171.1,361.1,171.1L361.1,171.1z
			 M335.8,290c0,6.5-5.3,11.8-11.8,11.8h-46.2c-6.5,0-11.8-5.3-11.8-11.8c0-6.5,5.3-11.8,11.8-11.8H324
			C330.5,278.2,335.8,283.5,335.8,290z M335.8,333.6c0,6.5-5.3,11.8-11.8,11.8h-46.2c-6.5,0-11.8-5.3-11.8-11.8s5.3-11.8,11.8-11.8
			H324C330.5,321.8,335.8,327.1,335.8,333.6z M214.9,137h17.6v22.4h-32.5C207.9,154,213.1,145.9,214.9,137z M301.2,65.8H325v29.9
			h-23.8V65.8z M270.7,115.6h4.7V140c0,10.3,1.9,20.2,5.6,29.7c0.1,0.3,0.2,0.6-0.3,1.1c-0.6,0.5-0.9,0.3-1.1,0.1
			c-14-9.3-23.4-23.7-26.3-40L270.7,115.6z M325,459.3c0,18-14.7,32.7-32.7,32.7h-54.6h-14.8h-18.7c-18,0-32.7-14.7-32.7-32.7V318.8
			c0-47.9,8.6-94.7,25.6-139.4h35.5v14.7c0,16.2,5.1,32,14.3,45.2c-0.5,2.3-0.8,4.7-0.8,7.1c0,8.4,3.3,16.1,8.7,21.8
			c-5.4,5.7-8.7,13.4-8.7,21.8c0,8.4,3.3,16.1,8.7,21.8c-5.4,5.7-8.7,13.4-8.7,21.8c0,17.5,14.3,31.8,31.8,31.8H324c0.3,0,0.7,0,1,0
			L325,459.3L325,459.3z M335.8,246.5c0,6.5-5.3,11.8-11.8,11.8h-46.2c-6.5,0-11.8-5.3-11.8-11.8c0-6.5,5.3-11.8,11.8-11.8H324
			C330.5,234.7,335.8,240,335.8,246.5L335.8,246.5z M361.1,214.7h-83.3c-7,0-13.5,2.3-18.8,6.2c-4.2-8.2-6.5-17.4-6.5-26.7v-3h108.6
			c6.5,0,11.8,5.3,11.8,11.8C372.9,209.4,367.6,214.7,361.1,214.7L361.1,214.7z"/>
		<path id="XMLID_844_" class="st0" d="M216.2,65.8c2.6,0,5.2-1.1,7.1-2.9c1.9-1.9,2.9-4.4,2.9-7.1s-1.1-5.2-2.9-7.1
			c-1.9-1.9-4.4-2.9-7.1-2.9s-5.2,1.1-7.1,2.9c-1.9,1.9-2.9,4.4-2.9,7.1s1.1,5.2,2.9,7.1C211,64.7,213.6,65.8,216.2,65.8z"/>
	</g>
</g>
</svg>
