<?xml version="1.0" encoding="utf-8"?>
<!-- Generator: Adobe Illustrator 24.0.2, SVG Export Plug-In . SVG Version: 6.00 Build 0)  -->
<svg version="1.1" id="Capa_1" xmlns="http://www.w3.org/2000/svg" xmlns:xlink="http://www.w3.org/1999/xlink" x="0px" y="0px"
	 viewBox="0 0 512 512" style="enable-background:new 0 0 512 512;" xml:space="preserve">
<style type="text/css">
	.st0{fill:#FFFFFF;}
</style>
<g>
	<circle class="st0" cx="502" cy="156" r="10"/>
	<circle class="st0" cx="502" cy="236" r="10"/>
	<circle class="st0" cx="502" cy="316" r="10"/>
	<path class="st0" d="M10,306h30v70c0,16.5,13.5,30,30,30s30-13.5,30-30c0-5.5,4.5-10,10-10h9.1c0.6,4.1,0.9,8.2,0.9,12.4V482
		c0,16.5,13.5,30,30,30h80c5.5,0,10-4.5,10-10c0-24.1-17.2-44.3-40-49v-74.6c0-4.1,0.3-8.3,0.9-12.4H230c27.6,0,50-22.4,50-50
		c0-14.3,0-55.8,0-70h18c5.5,0,10-4.5,10-10s-4.5-10-10-10c-20.2,0-62.5,0-78,0v-50c0-11.2-3.7-21.6-10-30h0c5.5,0,10-4.5,10-10V30
		c0-16.5-13.5-30-30-30h-40c-27.6,0-50,22.4-50,50v76H60V80h10c5.5,0,10-4.5,10-10s-4.5-10-10-10H30c-5.5,0-10,4.5-10,10
		s4.5,10,10,10h10v46H10c-5.5,0-10,4.5-10,10v160C0,301.5,4.5,306,10,306L10,306z M20,186h40v20H20V186z M80,376c0,5.5-4.5,10-10,10
		s-10-4.5-10-10v-70h40.7c1.4,12,4.9,23.7,10.3,34.5c0.9,1.8,1.7,3.7,2.5,5.5H110C93.5,346,80,359.5,80,376z M191.1,331.5
		c-7.3,14.5-11.1,30.7-11.1,46.8V406h-40v-27.6c0-15.6-3.5-31.8-11.1-46.8c-5.8-11.7-8.9-24.8-8.9-37.9V276c8.4,6.3,18.8,10,30,10
		h50v7.6C200,306.7,196.9,319.8,191.1,331.5L191.1,331.5z M218.3,492H150c-5.5,0-10-4.5-10-10v-56h40v36c0,5.5,4.5,10,10,10
		C203,472,214.2,480.4,218.3,492z M230,346h-23.6c0.8-1.9,1.6-3.7,2.5-5.5c7.2-14.5,11.1-30.7,11.1-46.8V286h40v30
		C260,332.5,246.5,346,230,346z M200,176v50h-10c-5.5,0-10-4.5-10-10v-40c0-5.5-4.5-10-10-10s-10,4.5-10,10v40c0,16.5,13.5,30,30,30
		h70v20H150c-16.5,0-30-13.5-30-30c0-11.3,0-80.3,0-90h50C186.5,146,200,159.5,200,176z M180,96V60h20v64.3
		C188.4,120.2,180,109,180,96z M120,50c0-16.5,13.5-30,30-30h40c5.5,0,10,4.5,10,10v10h-30c-5.5,0-10,4.5-10,10v46
		c0,11.2,3.7,21.6,10,30h-50L120,50z M100,146v140H20v-60h50c5.5,0,10-4.5,10-10v-40c0-5.5-4.5-10-10-10H20v-20H100z"/>
	<path class="st0" d="M376,244l80,60c4.4,3.3,10.7,2.4,14-2c3.3-4.4,2.4-10.7-2-14l-56-42h50c5.5,0,10-4.5,10-10s-4.5-10-10-10h-50
		l56-42c4.4-3.3,5.3-9.6,2-14s-9.6-5.3-14-2l-80,60c-2.5,1.9-4,4.9-4,8S373.5,242.1,376,244z"/>
	<circle class="st0" cx="343" cy="236" r="10"/>
</g>
</svg>
