<?xml version="1.0" encoding="utf-8"?>
<!-- Generator: Adobe Illustrator 24.0.2, SVG Export Plug-In . SVG Version: 6.00 Build 0)  -->
<svg version="1.1" id="Capa_1" xmlns="http://www.w3.org/2000/svg" xmlns:xlink="http://www.w3.org/1999/xlink" x="0px" y="0px"
	 viewBox="0 0 512 512" style="enable-background:new 0 0 512 512;" xml:space="preserve">
<style type="text/css">
	.st0{fill:#FFFFFF;}
</style>
<g>
	<path class="st0" d="M291.6,213.2c-2.9-2.9-7.7-2.9-10.6,0s-2.9,7.7,0,10.6l9.7,9.7h-69.5l9.7-9.7c2.9-2.9,2.9-7.7,0-10.6
		c-2.9-2.9-7.7-2.9-10.6,0l-22.5,22.5c-2.9,2.9-2.9,7.7,0,10.6l22.5,22.5c1.5,1.5,3.4,2.2,5.3,2.2s3.8-0.7,5.3-2.2
		c2.9-2.9,2.9-7.7,0-10.6l-9.7-9.7h69.5l-9.7,9.7c-2.9,2.9-2.9,7.7,0,10.6c1.5,1.5,3.4,2.2,5.3,2.2s3.8-0.7,5.3-2.2l22.5-22.5
		c2.9-2.9,2.9-7.7,0-10.6L291.6,213.2z"/>
	<path class="st0" d="M143.2,150.5H37.5C16.8,150.5,0,167.3,0,188c0,4.1,3.4,7.5,7.5,7.5s7.5-3.4,7.5-7.5
		c0-12.4,10.1-22.5,22.5-22.5h105.7c12.4,0,22.5,10.1,22.5,22.5l0,121.5c0,4-3.2,7-7.5,7s-7.5-3-7.5-7v-121c0-4.1-3.4-7.5-7.5-7.5
		s-7.5,3.4-7.5,7.5v267.1c0,5.9-5.2,10.9-11.4,10.9c-6.3,0-11.4-5.1-11.4-11.4V309c0-4.1-3.4-7.5-7.5-7.5h-30
		c-4.1,0-7.5,3.4-7.5,7.5v146.1c0,6.3-5.1,11.4-11.4,11.4c-6.2,0-11.4-5-11.4-10.9V188.5c0-4.1-3.4-7.5-7.5-7.5s-7.5,3.4-7.5,7.5
		V309c0,4.1-3.4,7.5-7.5,7.5S15,313.1,15,309v-91c0-4.1-3.4-7.5-7.5-7.5S0,213.9,0,218v91c0,12.4,10.1,22.5,22.5,22.5
		c2.6,0,5.2-0.5,7.5-1.3v125.4c0,14.3,11.9,25.9,26.4,25.9c14.6,0,26.4-11.9,26.4-26.4V316.5h15v138.6c0,14.6,11.9,26.4,26.4,26.4
		c14.6,0,26.4-11.6,26.4-25.9V330.3c2.3,0.8,4.9,1.2,7.5,1.2c12.6,0,22.5-9.7,22.5-22l0-121.5C180.7,167.3,163.8,150.5,143.2,150.5
		L143.2,150.5z"/>
	<path class="st0" d="M90,135.5c28.9,0,52.5-23.6,52.5-52.5S119,30.5,90,30.5S37.5,54.1,37.5,83S61.1,135.5,90,135.5z M90,45.5
		c20.7,0,37.5,16.8,37.5,37.5s-16.8,37.5-37.5,37.5S52.5,103.7,52.5,83S69.3,45.5,90,45.5z"/>
	<path class="st0" d="M474.5,150.5H368.8c-20.7,0-37.5,16.8-37.5,37.5l0,121c0,12.4,10.1,22.5,22.5,22.5c2.6,0,5.2-0.5,7.5-1.3
		v125.4c0,14.3,11.9,25.9,26.4,25.9c14.6,0,26.4-11.9,26.4-26.4V316.5h15l0,138.6c0,14.6,11.9,26.4,26.4,26.4
		c14.6,0,26.4-11.6,26.4-25.9V330.3c2.3,0.8,4.9,1.2,7.5,1.2c12.6,0,22.5-9.7,22.5-22V188C512,167.3,495.2,150.5,474.5,150.5
		L474.5,150.5z M497,309.5c0,4-3.2,7-7.5,7s-7.5-3-7.5-7c0,0,0-121,0-121c0-4.1-3.4-7.5-7.5-7.5s-7.5,3.4-7.5,7.5l0,267.1
		c0,5.9-5.2,10.9-11.4,10.9c-6.3,0-11.4-5.1-11.4-11.4l0-146.1c0-4.1-3.4-7.5-7.5-7.5h-30c-2,0-3.9,0.8-5.3,2.2
		c-1.4,1.4-2.2,3.3-2.2,5.3l0,146.1c0,6.3-5.1,11.4-11.4,11.4c-6.2,0-11.4-5-11.4-10.9l0-267.1c0-4.1-3.4-7.5-7.5-7.5
		s-7.5,3.4-7.5,7.5V309c0,4.1-3.4,7.5-7.5,7.5s-7.5-3.4-7.5-7.5l0-121c0-12.4,10.1-22.5,22.5-22.5h105.7c12.4,0,22.5,10.1,22.5,22.5
		V309.5z"/>
	<path class="st0" d="M421.3,135.5c28.9,0,52.5-23.6,52.5-52.5s-23.6-52.5-52.5-52.5S368.8,54.1,368.8,83S392.4,135.5,421.3,135.5z
		 M421.3,45.5c20.7,0,37.5,16.8,37.5,37.5s-16.8,37.5-37.5,37.5s-37.5-16.8-37.5-37.5S400.7,45.5,421.3,45.5z"/>
</g>
</svg>
