<?xml version="1.0" encoding="utf-8"?>
<!-- Generator: Adobe Illustrator 24.0.2, SVG Export Plug-In . SVG Version: 6.00 Build 0)  -->
<svg version="1.1" id="Capa_1" xmlns="http://www.w3.org/2000/svg" xmlns:xlink="http://www.w3.org/1999/xlink" x="0px" y="0px"
	 viewBox="0 0 512 512" style="enable-background:new 0 0 512 512;" xml:space="preserve">
<style type="text/css">
	.st0{fill:#FFFFFF;}
</style>
<g>
	<path class="st0" d="M510.6,295.1L474.3,224c-2.7-5.3-8.7-9.2-14.3-9.2H398c0,0,36.9-38.6,36.9-38.7c2.2-2.4,4.2-5.1,6-8
		c7.5-11.8,10.7-25.4,9.3-38.9c13.9-1.7,27.1-7.5,36-16.1L503.1,97c1.4-1.4,5.7-5.5,4.3-11c-1.4-5.6-7-7.2-9.1-7.8l-23.1-6.6
		c-5.2-1.5-11-2.2-16.9-2.1c1.9-5.6,3-11.4,2.9-17L460.7,30c0-1.9-0.1-7.5-4.9-10.4c-4.8-2.9-9.9-0.4-11.8,0.6l-21.3,10.6
		c-5.7,2.8-11,6.8-15.5,11.5c-2.9-5.4-6.6-10.2-10.9-14.1L379,12.4c-1.6-1.4-5.7-5.2-11.1-3.7c-5.3,1.4-7.1,6.8-7.7,8.6l-7.1,21.5
		c-3.9,11.7-2.9,25.6,2.3,38c-10.7,4.3-20.3,11.2-27.6,20.5c-2.6-9.1-6.1-17.3-10.5-24.2c-7.9-12.4-18.4-20.2-30.5-22.7
		c-28-5.8-58.5,18-80,58.3c-5.7-3.8-9.3-8.1-9.3-25.4V53.8c5-1.1,8.7-5.4,8.7-10.6V13.2c0-6-5-10.8-11.1-10.8h-82.7
		c-6.1,0-11.1,4.8-11.1,10.8v30.1c0,5.2,3.7,9.5,8.7,10.6v29.4c0,23.3-7.7,30.8-16.6,39.6c-9.8,9.6-20.8,20.4-20.8,49.1v42.9H52
		c-5.6,0-11.6,3.9-14.3,9.1L1.4,295.1c-1.9,3.8-1.9,7.9,0.1,11.1c1.9,3,5.3,4.9,9.1,4.9h13.5v71.6c0,4.1,3.2,7.7,7.3,7.8
		c4.2,0.1,7.7-3.3,7.7-7.5v-71.9h170.5c5.6,0,11.6-3.9,14.3-9.2l24.7-48.4v241.1H39.1v-76.8c0-4.1-3.4-7.5-7.5-7.5s-7.5,3.4-7.5,7.5
		V497c0,7,5.7,12.6,12.7,12.6h438.6c7,0,12.6-5.7,12.6-12.6V311.1l13.5,0c3.9,0,7.2-1.8,9.1-4.9C512.5,303,512.5,298.9,510.6,295.1
		L510.6,295.1z M471,86l16.8,4.8l-12,11.5c-6.8,6.6-17.8,11.1-29,12.2c-2.2-6-5.3-11.6-9.2-16.7c4.6-3.5,8.8-7.8,12.2-12.6
		C457.4,84,464.8,84.2,471,86z M429.3,44.1l16.5-8.2l0.3,16.8c0.2,12.4-7.9,26.5-19,34.3c-3.1-2.5-6.5-4.8-10.1-6.8
		c-3.5-1.9-7.1-3.5-10.8-4.8C408.3,62.9,417.7,49.9,429.3,44.1z M367.4,43.4l5.4-16.4l13.5,12.2c4.7,4.3,8.5,10.2,10.8,17
		c-2.6,5-4.5,10.3-5.5,15.7c-7.2-0.9-14.5-0.7-21.5,0.6C365.6,63.1,364.5,52.1,367.4,43.4z M327,194.6c6.2-26.4,7.9-52.4,5.3-74.9
		c1.2-3.2,2.6-6.2,4.5-9.1c14.9-23.5,47.7-31.3,73-17.3c12.4,6.9,21.1,17.8,24.4,30.8c3.1,12.3,1.1,25.1-5.9,36
		c-0.2,0.4-0.5,0.7-0.7,1.1l-42.7-23.5c-3.6-2-8.2-0.7-10.2,2.9c-2,3.6-0.7,8.2,2.9,10.2l39.8,22l-18,18.9L370,175.4
		c-3.6-2-8.2-0.7-10.2,2.9c-2,3.6-0.7,8.2,2.9,10.2l26,14.3l-11.4,12h-56C323.4,208.3,325.3,201.5,327,194.6L327,194.6z M116.5,17.4
		h74.8v21.7h-74.8V17.4z M87.8,171.9c0-22.4,7.6-29.8,16.3-38.4c9.9-9.7,21.1-20.7,21.1-50.3V54.1h57.4v29.2
		c0,25,7.6,32.4,17.7,38.9c-5.8,13.1-10.7,27.5-14.4,43c-4,16.9-6.2,33.6-6.5,49.7H87.8V171.9z M210.4,295.2
		c-0.2,0.3-0.8,0.8-1.2,0.9H17.8l33.3-65.4c0.2-0.3,0.8-0.8,1.2-0.9h191.5L210.4,295.2z M194.4,214.8c0.3-15,2.3-30.5,6.1-46.2
		c14.8-62.4,53-109.8,83.4-103.6c8.1,1.7,15.1,7.1,20.9,16.1c14.9,23.4,17.9,66.6,7.7,110.1c-1.9,8.1-4.3,16-6.9,23.6L194.4,214.8
		L194.4,214.8z M402.2,296.2c-4.1,0-7.5,3.4-7.5,7.5c0,4.1,3.4,7.5,7.5,7.5h0l70.7,0v183.5H263.5V253.5l24.7,48.4
		c2.6,5.3,8.6,9.2,14.3,9.2l64.9,0.1h0c4.1,0,7.5-3.4,7.5-7.5c0-4.1-3.4-7.5-7.5-7.5l-64.6-0.1c-0.4-0.1-1-0.6-1.2-1l-33.3-65.3
		h191.5c0.4,0.2,1,0.6,1.2,0.9l33.3,65.4L402.2,296.2z"/>
	<path class="st0" d="M287.1,178.5l-58.3-12c-4.1-0.8-8,1.8-8.9,5.8s1.8,8,5.8,8.9c0,0,59.3,12.2,59.8,12.2c3.5,0,6.6-2.4,7.3-6
		C293.7,183.3,291.1,179.4,287.1,178.5z"/>
	<path class="st0" d="M248.4,137.6c0,0,35.9,7.3,36.4,7.3c3.5,0,6.6-2.4,7.3-6c0.8-4.1-1.8-8-5.8-8.9l-34.9-7.2
		c-4.1-0.8-8,1.8-8.9,5.8C241.7,132.8,244.3,136.8,248.4,137.6L248.4,137.6z"/>
	<path class="st0" d="M81.8,413.5h62.9c4.1,0,7.5-3.4,7.5-7.5s-3.4-7.5-7.5-7.5H81.8c-4.1,0-7.5,3.4-7.5,7.5S77.7,413.5,81.8,413.5z
		"/>
	<path class="st0" d="M81.8,451.3h62.9c4.1,0,7.5-3.4,7.5-7.5s-3.4-7.5-7.5-7.5H81.8c-4.1,0-7.5,3.4-7.5,7.5S77.7,451.3,81.8,451.3z
		"/>
</g>
</svg>
