<?xml version="1.0" encoding="utf-8"?>
<!-- Generator: Adobe Illustrator 24.0.2, SVG Export Plug-In . SVG Version: 6.00 Build 0)  -->
<svg version="1.1" id="Outline" xmlns="http://www.w3.org/2000/svg" xmlns:xlink="http://www.w3.org/1999/xlink" x="0px" y="0px"
	 viewBox="0 0 512 512" style="enable-background:new 0 0 512 512;" xml:space="preserve">
<style type="text/css">
	.st0{fill:#FFFFFF;}
</style>
<path class="st0" d="M480,263.4c-0.3-4.2-3.8-7.4-8-7.4H357.2L352,151.6c-0.2-4.3-3.7-7.6-8-7.6h-56v-40c0-39.8-32.2-72-71.9-72
	c-8.2,0-16.3,1.4-24.1,4.1c-37.5-13.3-78.6,6.4-91.9,43.8C97.4,87.7,96,95.8,96,104v40H40c-4.3,0-7.8,3.3-8,7.6l-16,320
	c-0.2,4.4,3.2,8.2,7.6,8.4c0.1,0,0.3,0,0.4,0h464c4.4,0,8-3.6,8-8c0-0.2,0-0.4,0-0.6L480,263.4z M456,438.4l17.1,25.6H439L456,438.4
	z M477.7,442.1l-13.9-20.9l-15-149.2h15.8L477.7,442.1z M432.8,272l15,149.9l-17.6,26.3L416.6,272H432.8z M341.2,256h-15.1l-5.6-96
	h15.9L341.2,256z M304.5,160l5.6,96h-16.9l-4.8-96H304.5z M216,48c30.9,0,56,25.1,56,56v40h-32v-40c0-21.7-9.8-42.3-26.7-55.9
	C214.2,48,215.1,48,216,48z M192,53.4c19.5,9.3,32,29,32,50.6v40h-64v-40C160,82.4,172.5,62.7,192,53.4z M112,104
	c0-30.9,25.1-56,56-56c0.9,0,1.8,0,2.7,0.1C153.8,61.7,144,82.3,144,104v40h-32V104z M208.6,464H32.4l15.2-304H96v51.7l-20.4,13.6
	c-2.2,1.5-3.6,4-3.6,6.7v64c0,4.4,3.6,8,8,8h48c4.4,0,8-3.6,8-8v-64c0-2.7-1.3-5.2-3.6-6.7L112,211.7V160h112v24c0,4.4,3.6,8,8,8
	s8-3.6,8-8v-24h32.4l4.8,96H232c-4.2,0-7.7,3.2-8,7.4L208.6,464z M104,225.6l16,10.7V288H88v-51.7L104,225.6z M239.4,272h161.2
	l14.8,192H224.6L239.4,272z"/>
<path class="st0" d="M360,304c-4.4,0-8,3.6-8,8v64c0,13.2-10.8,24-24,24h-16c-13.2,0-24-10.8-24-24v-64c0-4.4-3.6-8-8-8s-8,3.6-8,8
	v64c0,22.1,17.9,40,40,40h16c22.1,0,40-17.9,40-40v-64C368,307.6,364.4,304,360,304z"/>
</svg>
