<?xml version="1.0" encoding="utf-8"?>
<!-- Generator: Adobe Illustrator 24.0.2, SVG Export Plug-In . SVG Version: 6.00 Build 0)  -->
<svg version="1.1" id="Capa_1" xmlns="http://www.w3.org/2000/svg" xmlns:xlink="http://www.w3.org/1999/xlink" x="0px" y="0px"
	 viewBox="0 0 512 512" style="enable-background:new 0 0 512 512;" xml:space="preserve">
<style type="text/css">
	.st0{fill:#0978CB;}
</style>
<g>
	<path class="st0" d="M508.9,268.2c-3.1-5.2-8.2-8.9-14.1-10.2c-11-2.5-22.1-1.6-32.2,2.2l-19.2-76.8c-1-4.1-5.2-6.5-9.2-5.5
		c-4.1,1-6.5,5.2-5.5,9.2l20.2,80.6c-4.8,3.6-9.1,7.9-12.6,13l-31.1,44.5l-10.5,1.6c-18.7,2.8-34.3,15.6-40.8,33.3l-2,5.4
		c-1.4,3.9,0.6,8.3,4.5,9.7c3.9,1.4,8.3-0.6,9.7-4.5l2-5.4c4.6-12.5,15.6-21.5,28.7-23.5l13.8-2.1c2.1-0.3,3.9-1.5,5.1-3.2
		l32.9-47.2c9.6-13.8,26.4-20.3,42.8-16.6c1.8,0.4,3.4,1.5,4.3,3.1s1.2,3.5,0.7,5.3L473,363.3c-4.7,16.7-17.2,30.4-33.4,36.8
		l-10.4,4.1c-7.1,2.8-11.5,10.1-10.6,17.7l8.8,77.3c0.4,3.9,3.7,6.7,7.5,6.7c0.3,0,0.6,0,0.9-0.1c4.2-0.5,7.2-4.2,6.7-8.4l-8.8-77.3
		c-0.1-0.8,0.4-1.5,1.1-1.8l10.4-4.1c20.5-8.1,36.4-25.6,42.4-46.8l23.4-82.2C512.8,279.6,512,273.3,508.9,268.2L508.9,268.2z"/>
	<path class="st0" d="M356.2,277.6l-15.8-156.1c0-0.1,0-0.2,0-0.2c-1-7.4,4-14.4,11.3-15.9c3.8-0.8,7.6,0,10.8,2.1
		c3.2,2.1,5.4,5.4,6.1,9.1L390.7,274c0.5,3.8,3.8,6.6,7.5,6.6c0.3,0,0.6,0,1-0.1c4.2-0.5,7.1-4.3,6.6-8.5l-16-124.6
		c0-0.1,0-0.3-0.1-0.4c-0.7-4,0.2-8,2.8-11.3c2.5-3.2,6.2-5.1,10.3-5.4c6.2-0.3,11.9,3.4,14.1,9.1l3.9,15.8c1,4.1,5.2,6.6,9.2,5.5
		c4.1-1,6.5-5.2,5.5-9.2l-4-16.1c-0.1-0.2-0.1-0.4-0.2-0.7c-4.3-12.3-16.4-20.3-29.4-19.6c-6.2,0.4-12.1,2.7-16.9,6.6l-1.5-8.2
		c-1.5-7.8-6-14.5-12.6-18.9s-14.5-5.9-22.3-4.3c-15,3.1-25.3,17.4-23.3,32.7l0.6,6.1c-3.1-0.9-6.3-1.3-9.6-1.1
		c-12.4,0.9-22.1,10.3-24,22.1c-4.2-2.3-9-3.6-14.2-3.6c-8.8,0-16.6,3.8-22.1,9.9c-5.4-6.1-13.3-9.9-22.1-9.9
		c-5.2,0-10,1.3-14.2,3.6c-1.9-11.8-11.6-21.1-24-22.1c-3.3-0.3-6.5,0.1-9.6,1.1l0.6-6.1c2-15.2-8.2-29.6-23.3-32.7
		c-7.8-1.6-15.7-0.1-22.3,4.3s-11.1,11.1-12.6,19l-1.5,8.1c-4.7-3.9-10.6-6.2-16.9-6.6c-13-0.8-25.1,7.3-29.4,19.6
		c-0.1,0.2-0.1,0.4-0.2,0.7l-16.8,66.9c-1,4.1,1.5,8.2,5.5,9.2c4.1,1,8.2-1.5,9.2-5.5l16.7-66.5c2.2-5.8,7.9-9.5,14.1-9.1
		c4.1,0.2,7.7,2.2,10.3,5.4c2.5,3.2,3.5,7.2,2.8,11.3c0,0.1-16,125-16,125c-0.5,4.2,2.4,8,6.6,8.5c0.3,0,0.7,0.1,1,0.1
		c3.8,0,7-2.8,7.5-6.6l22.1-157.4c0.7-3.8,2.9-7,6.1-9.2c3.2-2.1,7-2.9,10.8-2.1c7.3,1.5,12.3,8.5,11.3,15.9c0,0.1,0,0.2,0,0.2
		l-15.8,156.1c-0.4,4.2,2.6,7.9,6.8,8.3c0.3,0,0.5,0,0.8,0c3.9,0,7.2-2.9,7.6-6.8l13.2-130.2c0.3-0.6,0.7-1.1,1.1-1.6
		c2.3-2.8,5.8-4.3,9.4-4c5.9,0.4,10.4,5.4,10.2,11.4l-3,137.4c-0.1,4.2,3.2,7.7,7.4,7.8c0.1,0,0.1,0,0.2,0c4.1,0,7.5-3.3,7.6-7.5
		l2.4-118.5c1.2-6.9,7.1-12,14.3-12c8,0,14.5,6.5,14.5,14.5v92.5c-0.7,0.5-1.4,1.1-2.1,1.8c-11.6,12.2-25.5,29.5-25.5,42.6
		c0,16.8,11.8,30.8,27.5,34.3V366c0,13-4.4,25.7-12.5,35.9l-26.6,33.6c-1.1,1.3-1.6,3-1.6,4.7v58.2c0,4.2,3.4,7.6,7.6,7.6
		s7.6-3.4,7.6-7.6v-55.6l25-31.5c3.2-4,5.9-8.3,8.2-12.9c2.3,4.6,5,8.9,8.2,12.9l25,31.5v55.6c0,4.2,3.4,7.6,7.6,7.6
		s7.6-3.4,7.6-7.6v-58.2c0-1.7-0.6-3.4-1.6-4.7l-26.6-33.6c-8.1-10.2-12.5-22.9-12.5-35.9v-18.5c15.7-3.5,27.5-17.5,27.5-34.3
		c0-13.2-13.9-30.4-25.5-42.6c-0.6-0.7-1.3-1.2-2.1-1.8v-92.5c0-8,6.5-14.5,14.5-14.5c7.2,0,13.1,5.1,14.3,12l2.4,118.6
		c0.1,4.1,3.5,7.5,7.6,7.5c0.1,0,0.1,0,0.2,0c4.2-0.1,7.5-3.6,7.4-7.8l-2.8-137.4c-0.2-5.9,4.3-10.9,10.2-11.4
		c4.3-0.3,8.4,1.9,10.5,5.6l13.2,130.3c0.4,3.9,3.7,6.8,7.6,6.8c0.3,0,0.5,0,0.8,0C353.6,285.5,356.6,281.7,356.2,277.6L356.2,277.6
		z M275.9,313.2c0,11-8.9,19.9-19.9,19.9l0,0l0,0c-11,0-19.9-8.9-19.9-19.9c0-4.4,5.3-15,19.9-30.7
		C270.7,298.2,275.9,308.8,275.9,313.2L275.9,313.2z"/>
	<path class="st0" d="M158.1,360.1c-6.5-17.7-22.1-30.5-40.8-33.3l-10.5-1.6l-31.1-44.5c-3.6-5.1-7.9-9.5-12.6-13l7.5-30.1
		c1-4.1-1.5-8.2-5.5-9.2c-4.1-1-8.2,1.5-9.2,5.5l-6.6,26.3c-10-3.8-21.2-4.6-32.2-2.2c-5.9,1.3-11,5-14.1,10.2s-3.9,11.4-2.2,17.2
		l23.4,82.2c6,21.2,21.9,38.7,42.4,46.8l10.4,4.1c0.7,0.3,1.2,1,1.1,1.8l-8.8,77.3c-0.5,4.2,2.5,7.9,6.7,8.4c0.3,0,0.6,0.1,0.9,0.1
		c3.8,0,7.1-2.9,7.5-6.7l8.8-77.3c0.9-7.6-3.5-14.9-10.6-17.7l-10.4-4.1c-16.1-6.4-28.6-20.1-33.4-36.8l-23.4-82.2
		c-0.5-1.8-0.3-3.7,0.7-5.3c1-1.6,2.5-2.7,4.3-3.1c16.4-3.7,33.2,2.8,42.8,16.6l32.9,47.2c1.2,1.7,3,2.9,5.1,3.2L115,342
		c13.2,2,24.2,11,28.7,23.5l2,5.4c1.4,3.9,5.8,6,9.7,4.5c3.9-1.4,6-5.8,4.5-9.7L158.1,360.1z"/>
	<path class="st0" d="M256,114.7c26.3,0,47.6-21.4,47.6-47.6c0-1-0.1-2.1-0.2-3.4c-0.5-4.2-4.3-7.1-8.5-6.6s-7.1,4.3-6.6,8.5
		c0.1,0.6,0.1,1.2,0.1,1.6c0,17.9-14.5,32.4-32.4,32.4S223.6,85,223.6,67.1c0-9.7,12.4-27.2,32.4-45.7c4.3,3.9,11.8,11.3,18.6,19.5
		c2.7,3.2,7.5,3.7,10.7,1s3.7-7.5,1-10.7c-7.3-8.8-15.2-16.6-20.6-21.6c-5.5-5.1-13.8-5.1-19.4,0c-14.2,13-37.9,37.7-37.9,57.4
		C208.4,93.4,229.7,114.7,256,114.7L256,114.7z"/>
</g>
</svg>
