<?xml version="1.0" encoding="utf-8"?>
<!-- Generator: Adobe Illustrator 24.0.2, SVG Export Plug-In . SVG Version: 6.00 Build 0)  -->
<svg version="1.1" id="Capa_1" xmlns="http://www.w3.org/2000/svg" xmlns:xlink="http://www.w3.org/1999/xlink" x="0px" y="0px"
	 viewBox="0 0 512 512" style="enable-background:new 0 0 512 512;" xml:space="preserve">
<style type="text/css">
	.st0{fill:#FFFFFF;}
</style>
<g id="XMLID_1007_">
	<g id="XMLID_543_">
		<path id="XMLID_544_" class="st0" d="M510.1,158.8c-3.8-14-12.7-25.7-25.3-33L421.2,89c-4.8-2.8-10.9-1.1-13.7,3.7
			s-1.1,10.9,3.7,13.7l63.6,36.7c7.9,4.6,13.6,12,16,20.9c2.4,8.9,1.2,18.1-3.4,26.1l-50.5,87.4v-71.3c0-17.5-14.3-31.8-31.8-31.8
			c-4.2,0-8.1,0.8-11.8,2.3v-27.2c0-17.5-14.3-31.8-31.8-31.8c-4.3,0-8.5,0.9-12.3,2.5c-2.6-14.9-15.7-26.3-31.3-26.3
			s-28.7,11.4-31.3,26.3c-3.8-1.6-7.9-2.5-12.3-2.5c-17.5,0-31.8,14.3-31.8,31.8l0,121l-11.1-17.3c-8.7-13.6-25.6-19.7-41-14.7
			c-18.4,5.9-28.7,25.1-23.3,43.7l0.8,2.9c4.4,15.3,10.3,30,17.7,44l-68.9-39.8c-16.4-9.5-22-30.5-12.6-46.9L222.7,37.2
			c4.6-7.9,12-13.6,20.9-16c8.9-2.4,18.1-1.2,26.1,3.4l63.6,36.7c4.8,2.8,10.9,1.1,13.7-3.7c2.8-4.8,1.1-10.9-3.7-13.7L279.6,7.3
			c-12.6-7.3-27.2-9.2-41.2-5.4c-14,3.8-25.7,12.8-33,25.3l-6.3,10.9c-24.4-7.1-49.7-10.9-75.2-11.4c-0.1,0-0.1,0-0.2,0
			c-5.4,0-9.9,4.3-10,9.8c-0.1,5.5,4.3,10.1,9.8,10.2c22.1,0.4,44,3.6,65.3,9.3l-66.2,114.7c-14.4-4.9-29.4-7.6-44.7-7.9
			c-5.5-0.1-10.1,4.3-10.2,9.8c-0.1,5.5,4.3,10.1,9.8,10.2c11.9,0.2,23.6,2.1,34.8,5.6L87,232.4c-15,26-6.1,59.3,19.9,74.2
			l103.4,59.7c11.9,14.8,25.7,28.2,41,39.6V502c0,5.5,4.5,10,10,10c5.5,0,10-4.5,10-10V400.9c0-3.2-1.6-6.3-4.2-8.1
			c-38.5-27.5-66.8-67.7-79.8-113.1l-0.8-2.9c-2.3-8.2,2.2-16.6,10.2-19.2c6.8-2.2,14.2,0.5,18,6.5l29.5,46.1
			c2.4,3.7,7,5.4,11.2,4.2c4.3-1.2,7.2-5.2,7.2-9.6v-41.4c0-0.1,0-0.1,0-0.2V149.5c0-6.5,5.3-11.8,11.8-11.8s11.8,5.3,11.8,11.8
			v93.9c0,5.5,4.5,10,10,10c5.5,0,10-4.5,10-10V125.7c0-6.5,5.3-11.8,11.8-11.8c6.5,0,11.8,5.3,11.8,11.8v117.7c0,5.5,4.5,10,10,10
			s10-4.5,10-10v-93.9c0-6.5,5.3-11.8,11.8-11.8c6.5,0,11.8,5.3,11.8,11.8v93.9c0,5.5,4.5,10,10,10s10-4.5,10-10v-37.2
			c0-6.5,5.3-11.8,11.8-11.8s11.8,5.3,11.8,11.8v82c0,39.3-16,77.7-43.8,105.4c-1.9,1.9-2.9,4.4-2.9,7.1V502c0,5.5,4.5,10,10,10
			c5.5,0,10-4.5,10-10v-97.3c21.7-22.8,36.4-50.5,42.9-80.7l71.6-124C512,187.4,513.9,172.8,510.1,158.8L510.1,158.8z"/>
		<path id="XMLID_563_" class="st0" d="M10,68.1c1.3,0,2.6-0.2,3.8-0.8C33.9,59,55.1,53.1,76.7,49.8c5.5-0.8,9.2-5.9,8.4-11.4
			c-0.8-5.5-5.9-9.2-11.4-8.4c-23.2,3.5-45.9,9.9-67.5,18.8c-5.1,2.1-7.5,8-5.4,13.1C2.4,65.8,6.1,68.1,10,68.1z"/>
		<path id="XMLID_564_" class="st0" d="M10,133.3c1.3,0,2.6-0.2,3.8-0.8c31.2-12.8,65.5-17.4,99.1-13.3c5.5,0.7,10.5-3.2,11.1-8.7
			c0.7-5.5-3.2-10.5-8.7-11.1c-37-4.6-74.8,0.5-109.2,14.7c-5.1,2.1-7.5,7.9-5.4,13.1C2.3,131,6.1,133.3,10,133.3L10,133.3z"/>
		<path id="XMLID_565_" class="st0" d="M24.9,171.8c-6.8,2.5-13.4,5.5-19.7,9c-4.8,2.7-6.6,8.7-3.9,13.6c1.8,3.3,5.2,5.2,8.8,5.2
			c1.6,0,3.3-0.4,4.8-1.2c5.4-3,11.1-5.6,17-7.7c5.2-1.9,7.8-7.7,5.9-12.8C35.8,172.6,30,169.9,24.9,171.8z"/>
		<path id="XMLID_566_" class="st0" d="M377.2,85.2c2.6,0,5.2-1.1,7.1-2.9c1.9-1.9,2.9-4.4,2.9-7.1c0-2.6-1.1-5.2-2.9-7.1
			c-1.9-1.9-4.4-2.9-7.1-2.9c-2.6,0-5.2,1.1-7.1,2.9c-1.9,1.9-2.9,4.4-2.9,7.1c0,2.6,1.1,5.2,2.9,7.1
			C372,84.1,374.6,85.2,377.2,85.2z"/>
	</g>
</g>
</svg>
