<?xml version="1.0" encoding="utf-8"?>
<!-- Generator: Adobe Illustrator 24.0.2, SVG Export Plug-In . SVG Version: 6.00 Build 0)  -->
<svg version="1.1" id="Layer_1" xmlns="http://www.w3.org/2000/svg" xmlns:xlink="http://www.w3.org/1999/xlink" x="0px" y="0px"
	 viewBox="0 0 512 512" style="enable-background:new 0 0 512 512;" xml:space="preserve">
<style type="text/css">
	.st0{fill:#FFFFFF;}
</style>
<g>
	<g>
		<path class="st0" d="M107.9,204c1.7-20.3-9.4-46.6-25.3-60c-10.1-8.5-18.7-8.6-24.1-7.2c0,0,0,0,0,0c-10.5,2.8-18,9.4-21.7,19.2
			c-8,21.1,3.2,50.4,12.2,63.9c7.4,11.2,15.8,22,23,29.6c8.7,9.2,15.1,13.5,20.6,13.5c1.1,0,2.2-0.2,3.2-0.5
			c2.3-0.8,7.7-3.6,7.3-13.2c-0.4-9.5,0.8-16.7,2.1-25C106.1,218.6,107.2,212.1,107.9,204L107.9,204z M92.9,202.7
			c-0.6,7.5-1.6,13.5-2.5,19.2c-1.2,7.2-2.3,14.1-2.4,22.5c-6.2-5.6-16.2-17.1-26.6-32.8c-7.9-12-16.1-36.1-10.7-50.3
			c2-5.3,5.7-8.5,11.5-10c3.8-1,8.3,2.2,10.6,4.2C83.7,164.6,94.3,185.7,92.9,202.7z"/>
		<path class="st0" d="M248.5,131.6v247.3c0,4.1,3.4,7.5,7.5,7.5s7.5-3.4,7.5-7.5V131.6c0-4.1-3.4-7.5-7.5-7.5
			C251.9,124.1,248.5,127.4,248.5,131.6L248.5,131.6z"/>
		<path class="st0" d="M404.1,204c0.7,8.1,1.8,14.6,2.7,20.3c1.4,8.3,2.5,15.5,2.1,25c-0.4,9.6,5,12.4,7.3,13.2
			c1.1,0.3,2.1,0.5,3.3,0.5c5.5,0,11.9-4.2,20.6-13.5c7.2-7.7,15.6-18.5,23-29.6c9-13.5,20.2-42.9,12.2-63.9
			c-3.7-9.8-11.2-16.4-21.7-19.2c0,0,0,0,0,0c-5.4-1.4-14-1.3-24.1,7.2C413.6,157.4,402.4,183.7,404.1,204L404.1,204z M439.1,155.5
			c2.1-1.7,5.8-4.4,9.2-4.4c0.5,0,1,0.1,1.5,0.2c5.8,1.5,9.5,4.7,11.5,10c5.4,14.2-2.7,38.3-10.7,50.3
			c-10.4,15.7-20.4,27.2-26.6,32.7c-0.1-8.4-1.2-15.3-2.4-22.5c-0.9-5.7-1.9-11.7-2.5-19.2C417.6,185.7,428.3,164.6,439.1,155.5
			L439.1,155.5z"/>
		<path class="st0" d="M170.9,180.3c3-2.8,3.2-7.6,0.3-10.6c-2.8-3-7.6-3.2-10.6-0.3l-16.3,15.4c-3,2.8-3.2,7.6-0.3,10.6
			c1.5,1.6,3.5,2.4,5.5,2.4c1.8,0,3.7-0.7,5.1-2L170.9,180.3z"/>
		<path class="st0" d="M340.8,169.7c-2.8,3-2.7,7.8,0.3,10.6l16.3,15.4c1.4,1.4,3.3,2,5.1,2c2,0,4-0.8,5.5-2.4
			c2.8-3,2.7-7.8-0.3-10.6l-16.3-15.4C348.4,166.5,343.6,166.7,340.8,169.7L340.8,169.7z"/>
		<path class="st0" d="M485.8,107.9c-11.3-9.3-24.8-12.9-39-10.4c-4.1,0.7-6.8,4.6-6.1,8.7c0.7,4.1,4.6,6.8,8.7,6.1
			c9.7-1.7,19,0.8,26.9,7.2c12.6,10.4,20.4,29.8,20.8,52c0.6,34.8-19.8,85.3-78.6,122.7c-1.8,1.2-3.1,3.1-3.4,5.3
			c-11.2,78.2-124.7,125.8-159,126.7c-18.6-0.5-57.7-14.1-91.1-36.1c-3.5-2.3-8.1-1.3-10.4,2.1c-2.3,3.5-1.3,8.1,2.1,10.4
			c37.5,24.7,78.3,38.1,99.2,38.6c0.1,0,0.1,0,0.2,0c0.1,0,0.1,0,0.2,0c20.3-0.5,60-13.4,96.8-37.1c30.5-19.7,68.1-52.7,76.3-99.1
			c26.2-17.2,47.6-39,62.1-63.2c13.9-23.2,21-47.6,20.6-70.5C511.5,144.8,501.7,121.1,485.8,107.9L485.8,107.9z"/>
		<path class="st0" d="M138.9,370c-24.2-21.9-38.3-45.6-41.9-70.5c-0.3-2.2-1.6-4.1-3.4-5.3C34.7,256.7,14.4,204.7,15,171.5
			c0.5-29.8,14.5-54,34.1-58.9c10.2-2.5,21.5,0.3,32.9,8.1c14.1,9.7,27.6,26.3,40.3,49.5c1.1,2,3,3.4,5.3,3.8
			c2.3,0.4,4.6-0.3,6.3-1.8l74.8-66.3c14.7-13,30.6-19.8,47.3-20.3c16.7,0.4,32.6,7.3,47.3,20.3l74.8,66.3c1.7,1.5,4,2.2,6.3,1.8
			c2.2-0.4,4.2-1.8,5.3-3.8c10.4-19,21.5-33.7,33-43.8c3.1-2.7,3.4-7.5,0.7-10.6c-2.7-3.1-7.5-3.4-10.6-0.7
			c-11.1,9.7-21.7,23.1-31.6,39.8l-67.9-60.2c-17.5-15.5-36.7-23.6-57.1-24c-0.1,0-0.2,0-0.4,0c-20.4,0.5-39.6,8.6-57.1,24.1
			L130.8,155c-12.6-21.1-26.1-36.8-40.4-46.6c-15-10.3-30.6-13.9-45-10.3c-26.6,6.6-44.9,36-45.5,73.2c-0.4,23,6.7,47.3,20.6,70.5
			c14.5,24.2,35.9,46,62.1,63.2c4.8,27.2,20.3,52.8,46.1,76.1c1.4,1.3,3.2,1.9,5,1.9c2,0,4.1-0.8,5.6-2.5
			C142.2,377.5,141.9,372.8,138.9,370L138.9,370z"/>
	</g>
</g>
</svg>
